<mxfile type="github" version="12.1.9" host="www.draw.io" modified="2019-10-31T08:04:14.383Z" agent="Mozilla/5.0 (Windows NT 10.0; Win64; x64) AppleWebKit/537.36 (KHTML, like Gecko) Chrome/64.0.3282.140 Safari/537.36 Edge/18.17763" etag="YA3etdFwK2QJtbfJC8PD" pages="1">
  <diagram id="MQAHFbbfDHAqXE929brh" name="Page-1">
    <mxGraphModel grid="1" dx="1554" dy="849" gridSize="10" guides="1" tooltips="1" connect="1" arrows="1" fold="1" page="1" pageScale="1" pageWidth="827" pageHeight="1169" math="0" shadow="0">
      <root>
        <mxCell id="0"/>
        <mxCell id="1" parent="0"/>
        <mxCell id="2I_Xf8qAkBCNeDOOvv6f-1" value="SBUX/Delivery OMS/MOP MOS" parent="1" vertex="1" style="rounded=1;whiteSpace=wrap;html=1;fillColor=#dae8fc;strokeColor=#6c8ebf;">
          <mxGeometry as="geometry" height="77" width="200" y="390" x="60"/>
        </mxCell>
        <mxCell id="2I_Xf8qAkBCNeDOOvv6f-2" value="" parent="1" vertex="1" style="rounded=1;whiteSpace=wrap;html=1;dashed=1;fillColor=#fff2cc;strokeColor=#d6b656;">
          <mxGeometry as="geometry" height="580" width="750" y="260" x="390"/>
        </mxCell>
        <mxCell id="2I_Xf8qAkBCNeDOOvv6f-3" value="&lt;h1&gt;Mid Layer Platform&lt;/h1&gt;&lt;p&gt;Lorem ipsum dolor sit amet, consectetur adipisicing elit, sed do eiusmod tempor incididunt ut labore et dolore magna aliqua.&lt;/p&gt;" parent="1" vertex="1" style="text;html=1;strokeColor=none;fillColor=none;spacing=5;spacingTop=-20;whiteSpace=wrap;overflow=hidden;rounded=0;dashed=1;">
          <mxGeometry as="geometry" height="120" width="250" y="270" x="410"/>
        </mxCell>
        <mxCell id="2I_Xf8qAkBCNeDOOvv6f-4" value="Common Service Center - API Gate way" parent="1" vertex="1" style="rounded=1;whiteSpace=wrap;html=1;">
          <mxGeometry as="geometry" height="395" width="245" y="385" x="415"/>
        </mxCell>
        <mxCell id="2I_Xf8qAkBCNeDOOvv6f-5" value="Promotion Engine&amp;nbsp; Center " parent="1" vertex="1" style="rounded=1;whiteSpace=wrap;html=1;">
          <mxGeometry as="geometry" height="65" width="205" y="385" x="830"/>
        </mxCell>
        <mxCell id="2I_Xf8qAkBCNeDOOvv6f-6" value="Order Center " parent="1" vertex="1" style="rounded=1;whiteSpace=wrap;html=1;">
          <mxGeometry as="geometry" height="65" width="205" y="520" x="830"/>
        </mxCell>
        <mxCell id="2I_Xf8qAkBCNeDOOvv6f-7" value="" parent="1" vertex="1" style="rounded=1;whiteSpace=wrap;html=1;dashed=1;fillColor=#e1d5e7;strokeColor=#9673a6;">
          <mxGeometry as="geometry" height="580" width="330" y="260" x="1240"/>
        </mxCell>
        <mxCell id="2I_Xf8qAkBCNeDOOvv6f-8" value="&lt;h1&gt;Backend Systems&lt;/h1&gt;&lt;p&gt;Lorem ipsum dolor sit amet, consectetur adipisicing elit, sed do eiusmod tempor incididunt ut labore et dolore magna aliqua.&lt;/p&gt;" parent="1" vertex="1" style="text;html=1;strokeColor=none;fillColor=none;spacing=5;spacingTop=-20;whiteSpace=wrap;overflow=hidden;rounded=0;dashed=1;">
          <mxGeometry as="geometry" height="120" width="250" y="265" x="1270"/>
        </mxCell>
        <mxCell id="2I_Xf8qAkBCNeDOOvv6f-9" value="&lt;font style=&quot;font-size: 15px&quot;&gt;Libra&lt;/font&gt;" parent="1" vertex="1" style="rounded=1;whiteSpace=wrap;html=1;">
          <mxGeometry as="geometry" height="394" width="245" y="386" x="1284"/>
        </mxCell>
        <mxCell id="2I_Xf8qAkBCNeDOOvv6f-10" value="Mid Layer Platform Promotion Engine Business Flow Arch." parent="1" vertex="1" style="text;html=1;strokeColor=none;fillColor=none;align=center;verticalAlign=middle;whiteSpace=wrap;rounded=0;fontSize=45;">
          <mxGeometry as="geometry" height="50" width="1180" y="90" x="270"/>
        </mxCell>
        <mxCell id="2I_Xf8qAkBCNeDOOvv6f-11" value="" parent="1" style="shape=flexArrow;endArrow=classic;html=1;fontSize=45;exitX=0.997;exitY=0.629;exitDx=0;exitDy=0;exitPerimeter=0;entryX=0.012;entryY=0.136;entryDx=0;entryDy=0;entryPerimeter=0;" edge="1">
          <mxGeometry as="geometry" height="50" width="50" relative="1">
            <mxPoint as="sourcePoint" y="417.433" x="259.39999999999986"/>
            <mxPoint as="targetPoint" y="417.72" x="417.94000000000005"/>
          </mxGeometry>
        </mxCell>
        <mxCell id="2I_Xf8qAkBCNeDOOvv6f-12" value="" parent="1" style="shape=flexArrow;endArrow=classic;html=1;fontSize=45;exitX=0.997;exitY=0.629;exitDx=0;exitDy=0;exitPerimeter=0;" target="2I_Xf8qAkBCNeDOOvv6f-5" edge="1">
          <mxGeometry as="geometry" height="50" width="50" relative="1">
            <mxPoint as="sourcePoint" y="416.433" x="659.9000000000001"/>
            <mxPoint as="targetPoint" y="417" x="790"/>
          </mxGeometry>
        </mxCell>
        <mxCell id="2I_Xf8qAkBCNeDOOvv6f-14" value="" parent="1" style="shape=flexArrow;endArrow=classic;startArrow=classic;html=1;fontSize=45;" edge="1">
          <mxGeometry as="geometry" height="50" width="50" relative="1">
            <mxPoint as="sourcePoint" y="417.5" x="1030"/>
            <mxPoint as="targetPoint" y="418" x="1290"/>
          </mxGeometry>
        </mxCell>
        <mxCell id="2I_Xf8qAkBCNeDOOvv6f-15" value="Business relationship" parent="1" vertex="1" style="text;strokeColor=none;fillColor=none;html=1;fontSize=12;fontStyle=0;verticalAlign=middle;align=center;">
          <mxGeometry as="geometry" height="30" width="130" y="385" x="1080"/>
        </mxCell>
        <mxCell id="2I_Xf8qAkBCNeDOOvv6f-16" value="Business relationship" parent="1" vertex="1" style="text;strokeColor=none;fillColor=none;html=1;fontSize=12;fontStyle=0;verticalAlign=middle;align=center;">
          <mxGeometry as="geometry" height="30" width="130" y="381" x="261"/>
        </mxCell>
        <mxCell id="2I_Xf8qAkBCNeDOOvv6f-17" value="Business relationship" parent="1" vertex="1" style="text;strokeColor=none;fillColor=none;html=1;fontSize=12;fontStyle=0;verticalAlign=middle;align=center;">
          <mxGeometry as="geometry" height="30" width="130" y="385" x="675"/>
        </mxCell>
        <mxCell id="2I_Xf8qAkBCNeDOOvv6f-20" value="Business relationship" parent="1" vertex="1" style="text;strokeColor=none;fillColor=none;html=1;fontSize=12;fontStyle=0;verticalAlign=middle;align=center;">
          <mxGeometry as="geometry" height="30" width="130" y="510" x="1080"/>
        </mxCell>
        <mxCell id="F4i2hOFiznxhLBK2m3vf-7" value="" parent="1" style="shape=flexArrow;endArrow=classic;html=1;fontSize=45;exitX=0.997;exitY=0.629;exitDx=0;exitDy=0;exitPerimeter=0;" edge="1">
          <mxGeometry as="geometry" height="50" width="50" relative="1">
            <mxPoint as="sourcePoint" y="551.933" x="1034.9"/>
            <mxPoint as="targetPoint" y="551" x="1284"/>
          </mxGeometry>
        </mxCell>
        <mxCell id="F4i2hOFiznxhLBK2m3vf-8" value="" parent="1" style="shape=flexArrow;endArrow=classic;html=1;fontSize=45;exitX=0.997;exitY=0.629;exitDx=0;exitDy=0;exitPerimeter=0;entryX=0.995;entryY=0.817;entryDx=0;entryDy=0;entryPerimeter=0;" target="2I_Xf8qAkBCNeDOOvv6f-4" edge="1">
          <mxGeometry as="geometry" height="50" width="50" relative="1">
            <mxPoint as="sourcePoint" y="709.933" x="1283.9"/>
            <mxPoint as="targetPoint" y="719" x="894"/>
          </mxGeometry>
        </mxCell>
        <mxCell id="F4i2hOFiznxhLBK2m3vf-9" value="Business relationship" parent="1" vertex="1" style="text;strokeColor=none;fillColor=none;html=1;fontSize=12;fontStyle=0;verticalAlign=middle;align=center;">
          <mxGeometry as="geometry" height="30" width="130" y="660" x="1080"/>
        </mxCell>
      </root>
    </mxGraphModel>
  </diagram>
</mxfile>
